<?xml version="1.0" standalone="no"?>
<!DOCTYPE svg PUBLIC "-//W3C//DTD SVG 20010904//EN"
 "http://www.w3.org/TR/2001/REC-SVG-20010904/DTD/svg10.dtd">
<svg version="1.0" xmlns="http://www.w3.org/2000/svg"
 width="500.000000pt" height="500.000000pt" viewBox="0 0 500.000000 500.000000"
 preserveAspectRatio="xMidYMid meet">
<metadata>
Created by potrace 1.11, written by Peter Selinger 2001-2013
</metadata>
<g transform="translate(0.000000,500.000000) scale(0.100000,-0.100000)"
fill="#000000" stroke="none">
<path d="M799 4948 c-14 -13 -31 -33 -37 -45 -15 -27 -16 -119 -2 -128 6 -3
10 -16 10 -28 0 -12 9 -46 19 -75 11 -29 20 -56 21 -60 2 -15 56 -199 76 -262
3 -8 5 -16 5 -17 0 -2 6 -21 14 -43 8 -22 14 -41 14 -43 0 -1 2 -9 5 -17 3 -8
19 -64 36 -125 17 -60 35 -118 41 -128 5 -10 7 -22 4 -27 -3 -5 -1 -11 4 -14
5 -3 12 -23 17 -43 9 -45 5 -31 34 -123 13 -41 25 -78 26 -82 1 -5 2 -9 4 -10
1 -2 3 -11 6 -20 7 -30 10 -41 29 -103 11 -33 18 -64 17 -69 -2 -4 3 -14 9
-22 6 -8 8 -14 4 -14 -4 0 -3 -6 3 -12 5 -7 16 -39 23 -70 8 -32 16 -58 19
-58 3 0 7 -11 8 -26 1 -14 6 -34 12 -44 5 -10 10 -28 10 -39 0 -12 5 -21 11
-21 5 0 8 -4 5 -8 -3 -5 8 -50 24 -100 37 -117 54 -174 55 -187 0 -5 6 -23 12
-40 12 -31 52 -166 58 -194 2 -10 10 -34 19 -55 8 -20 15 -40 14 -44 -1 -4 9
-41 22 -82 14 -41 25 -78 26 -82 1 -5 2 -9 4 -10 2 -3 10 -34 14 -58 2 -8 6
-23 10 -32 4 -9 9 -22 10 -30 2 -7 5 -20 9 -28 9 -24 39 -124 41 -135 1 -5 5
-16 9 -23 5 -6 6 -12 2 -12 -3 0 2 -17 10 -38 9 -20 16 -38 16 -39 -1 -3 0 -6
4 -20 1 -5 5 -21 9 -38 4 -16 12 -41 18 -55 6 -14 12 -38 15 -55 3 -16 9 -35
14 -41 5 -6 6 -14 2 -17 -3 -4 -2 -7 4 -7 6 0 9 -11 8 -25 -2 -14 0 -25 4 -25
4 0 13 -21 20 -47 6 -27 13 -52 14 -58 1 -5 5 -14 9 -20 3 -5 9 -26 13 -45 4
-19 10 -39 13 -45 4 -5 7 -14 7 -20 1 -5 7 -30 14 -55 7 -25 14 -49 15 -55 1
-5 5 -16 9 -22 5 -7 5 -13 1 -13 -3 0 -2 -6 3 -12 6 -7 17 -38 24 -68 7 -30
19 -66 25 -79 7 -13 10 -30 7 -37 -3 -8 1 -14 8 -14 7 0 10 -2 7 -5 -3 -3 3
-34 14 -68 11 -34 21 -69 23 -77 2 -8 13 -46 25 -85 12 -38 22 -74 23 -80 2
-5 6 -16 10 -22 5 -7 5 -13 1 -13 -3 0 -1 -7 6 -15 7 -8 9 -15 5 -15 -4 0 -2
-7 5 -15 7 -8 10 -15 6 -15 -3 0 0 -16 9 -36 8 -19 14 -38 13 -42 -1 -7 -1 -9
27 -87 9 -27 18 -57 19 -65 1 -8 8 -35 16 -60 8 -25 15 -49 16 -55 0 -5 4 -17
7 -25 3 -8 15 -45 26 -82 26 -86 44 -121 73 -140 29 -19 77 -28 84 -16 3 4 9
6 13 3 10 -5 71 60 71 75 0 6 5 16 10 23 15 18 75 110 84 127 11 23 29 53 54
87 12 17 22 36 22 41 0 6 3 12 8 14 7 3 47 66 110 173 20 33 39 62 44 63 4 2
8 10 8 18 0 8 5 14 10 14 6 0 10 7 10 15 0 8 5 15 11 15 5 0 8 4 5 9 -3 4 3
19 14 31 11 13 20 27 20 31 0 4 6 14 13 21 7 7 39 58 72 113 32 55 63 105 67
110 5 6 44 69 88 140 44 72 84 137 89 145 6 8 36 57 67 108 31 50 60 92 64 92
4 0 7 6 7 13 0 6 19 40 42 74 22 34 41 67 41 73 0 5 4 10 9 10 5 0 11 8 15 18
3 9 30 55 59 102 30 47 100 159 157 250 56 91 106 168 112 171 5 3 9 10 7 14
-1 4 3 14 9 24 40 57 92 143 92 151 0 6 5 10 10 10 6 0 10 6 10 13 0 7 9 23
20 35 11 12 20 25 20 30 0 5 7 15 15 22 9 7 13 15 11 17 -3 3 0 10 5 17 5 6
54 83 109 171 54 88 103 165 109 171 5 7 7 15 4 18 -4 3 -2 6 4 6 6 0 16 13
23 30 7 17 16 30 21 30 5 0 9 6 9 13 0 7 25 49 55 94 30 46 55 85 55 88 0 8
43 69 55 77 6 4 7 8 3 8 -4 0 4 16 17 36 13 19 27 44 30 55 4 10 10 19 14 19
4 0 18 21 31 47 23 47 34 113 18 113 -5 0 -7 4 -3 10 8 12 -36 80 -52 80 -7 0
-13 3 -13 8 0 4 -16 18 -36 32 -20 13 -49 36 -65 50 -15 14 -50 41 -76 60 -26
19 -55 43 -64 52 -9 10 -20 18 -25 18 -5 0 -22 14 -38 30 -16 17 -33 30 -38
30 -4 0 -18 9 -30 20 -34 31 -46 41 -123 100 -38 29 -75 58 -80 64 -19 20 -70
52 -100 63 -29 11 -110 33 -120 34 -2 0 -19 5 -37 11 -18 5 -42 11 -53 13 -11
2 -33 8 -50 15 -16 6 -30 11 -30 10 0 -1 -7 1 -15 4 -8 2 -28 8 -45 12 -16 4
-34 8 -40 10 -5 2 -19 5 -30 8 -11 3 -35 9 -53 15 -18 5 -36 10 -40 11 -4 0
-23 5 -42 10 -19 5 -39 10 -45 11 -5 1 -21 6 -35 11 -14 6 -34 11 -45 13 -11
2 -47 11 -80 20 -33 10 -67 19 -75 20 -8 2 -15 4 -15 5 0 1 -7 3 -15 5 -13 4
-141 39 -180 50 -8 2 -42 11 -75 20 -33 8 -67 17 -75 19 -8 3 -37 10 -65 17
-27 8 -53 18 -57 24 -4 5 -8 7 -8 4 0 -4 -33 2 -72 13 -40 11 -93 25 -118 30
-25 6 -47 13 -50 17 -3 3 -12 7 -20 7 -26 3 -62 12 -173 43 -59 17 -114 31
-122 31 -8 0 -15 3 -15 8 0 4 -10 8 -23 9 -26 3 -46 7 -67 16 -8 4 -27 8 -42
11 -15 3 -31 7 -36 10 -5 3 -22 8 -38 11 -16 3 -69 17 -119 31 -49 14 -99 27
-110 29 -11 2 -20 4 -20 5 0 2 -16 6 -77 21 -27 6 -48 14 -48 17 0 4 -17 8
-37 10 -20 1 -42 7 -48 12 -7 5 -15 7 -18 4 -3 -3 -12 -2 -19 2 -13 9 -29 13
-60 16 -10 1 -18 5 -18 8 0 3 -8 6 -17 7 -10 1 -36 7 -58 13 -78 23 -108 23
-136 -2z m401 -340 c19 -5 42 -11 50 -13 8 -2 17 -4 20 -5 3 -1 10 -3 15 -5 6
-1 13 -3 18 -5 4 -1 10 -3 15 -4 4 -2 27 -8 52 -15 25 -7 50 -14 55 -15 6 -1
21 -5 35 -9 14 -4 43 -13 65 -19 22 -5 47 -13 55 -16 8 -3 24 -7 35 -9 11 -2
31 -8 45 -13 14 -5 36 -12 50 -14 44 -9 170 -45 182 -52 6 -4 21 -8 32 -10 18
-2 56 -12 151 -40 11 -3 29 -7 40 -7 11 -1 22 -5 25 -9 3 -4 21 -10 39 -13 19
-3 42 -10 52 -16 11 -5 19 -8 19 -5 0 2 21 -3 48 -11 26 -8 54 -16 62 -18 8
-2 30 -8 48 -14 17 -5 32 -7 32 -3 0 4 4 3 8 -3 6 -8 127 -44 202 -60 8 -2 17
-4 20 -6 3 -1 10 -3 15 -4 6 -2 13 -4 18 -5 4 -1 10 -3 15 -4 4 -2 27 -8 52
-15 25 -7 52 -15 60 -16 8 -2 15 -4 15 -5 0 -1 7 -3 15 -5 8 -2 33 -9 55 -15
22 -7 52 -14 68 -17 15 -3 27 -9 27 -14 0 -5 7 -6 15 -3 8 4 21 2 28 -3 6 -5
19 -9 27 -8 8 0 17 -2 20 -5 4 -4 47 -17 120 -35 62 -16 138 -37 150 -42 19
-8 40 -13 63 -15 9 -1 17 -6 17 -11 0 -4 4 -6 9 -2 5 3 12 1 15 -4 6 -9 -147
-203 -165 -209 -5 -2 -9 -10 -9 -17 0 -7 -3 -15 -8 -17 -4 -1 -28 -28 -52 -58
-25 -30 -54 -64 -65 -75 -11 -11 -33 -38 -50 -60 -16 -22 -34 -45 -40 -51 -26
-28 -63 -73 -94 -114 -19 -25 -39 -49 -46 -55 -6 -5 -49 -57 -95 -115 -47 -58
-94 -114 -105 -126 -11 -11 -31 -37 -45 -57 -14 -20 -28 -37 -31 -37 -4 0 -26
-25 -49 -56 -23 -31 -53 -68 -66 -82 -55 -62 -84 -97 -84 -104 0 -29 -51 31
-135 160 -5 9 -16 23 -23 31 -7 9 -12 20 -11 24 0 5 -6 14 -14 20 -15 13 -117
154 -117 162 0 6 -14 24 -42 56 -10 10 -16 19 -13 19 3 0 1 6 -5 13 -26 31
-80 106 -80 112 0 4 -6 12 -12 20 -27 28 -48 56 -48 63 0 5 -8 17 -17 28 -10
11 -22 28 -28 37 -5 9 -50 74 -100 144 -49 70 -92 132 -94 138 -2 5 -7 12 -11
15 -3 3 -22 27 -41 55 -18 27 -38 54 -42 60 -4 5 -43 62 -87 125 -44 63 -83
120 -88 125 -4 6 -23 33 -42 60 -19 28 -37 52 -42 53 -4 2 -8 10 -8 18 0 8 -4
14 -8 14 -5 0 -14 11 -20 25 -7 14 -17 31 -22 38 -22 25 -190 266 -190 273 0
3 8 3 18 -1 9 -4 33 -11 52 -17z m-52 -315 c6 -10 37 -53 67 -96 30 -42 55
-82 55 -87 0 -6 4 -10 8 -10 4 0 16 -13 25 -30 10 -16 23 -35 30 -43 7 -7 17
-20 22 -29 28 -47 140 -203 147 -206 4 -2 6 -8 2 -13 -3 -5 -1 -9 5 -9 5 0 16
-11 23 -24 16 -30 127 -190 151 -218 9 -12 17 -25 17 -29 0 -4 11 -19 25 -33
14 -14 26 -29 26 -33 0 -5 15 -28 33 -53 18 -25 33 -49 33 -54 1 -5 5 -12 10
-15 10 -7 133 -179 133 -186 0 -3 7 -13 15 -22 8 -10 77 -108 154 -218 77
-110 158 -227 182 -260 39 -55 42 -63 39 -115 -4 -91 -8 -135 -10 -135 -1 0
-3 -25 -5 -55 -2 -30 -7 -86 -10 -125 -4 -38 -8 -92 -10 -120 -2 -27 -6 -72
-9 -100 -9 -100 -19 -231 -20 -262 -1 -18 -3 -33 -6 -33 -3 0 -6 -24 -6 -53
-1 -28 -4 -83 -7 -122 -6 -63 -10 -106 -22 -245 -2 -25 -4 -45 -5 -45 -1 0 -3
-27 -5 -60 -3 -33 -7 -87 -10 -120 -11 -123 -17 -191 -18 -219 -2 -16 -9 -32
-16 -34 -9 -3 -11 0 -6 8 4 6 3 22 -3 33 -11 26 -42 129 -48 165 -3 14 -8 30
-12 36 -4 6 -7 13 -7 16 -1 3 -9 32 -19 65 -10 33 -19 65 -21 70 -1 6 -4 17
-7 25 -7 19 -33 103 -34 110 0 3 -9 32 -19 65 -11 33 -19 62 -20 65 0 3 -6 21
-12 40 -34 108 -47 156 -45 163 1 4 -3 7 -9 7 -5 0 -8 4 -5 9 3 5 -1 25 -9 45
-8 20 -13 36 -10 36 2 0 -4 20 -15 46 -11 25 -15 42 -9 38 6 -3 4 4 -4 17 -9
13 -16 27 -16 32 0 4 -7 33 -16 65 -10 31 -18 62 -20 67 -1 6 -5 17 -8 25 -4
8 -17 53 -31 100 -14 47 -31 106 -39 132 -8 26 -12 49 -9 52 3 4 -1 6 -8 6 -7
0 -11 2 -8 5 3 3 -6 41 -19 83 -14 42 -26 82 -27 87 -4 17 -28 99 -34 115 -3
8 -6 20 -8 27 -3 14 -33 112 -41 133 -3 8 -7 20 -7 25 -2 12 -35 125 -43 145
-3 8 -7 20 -9 25 -25 86 -37 127 -45 159 -5 22 -13 44 -17 50 -3 6 -7 16 -8
21 -1 6 -9 37 -19 70 -21 70 -24 83 -26 93 0 4 -5 14 -10 23 -4 9 -11 31 -14
50 -3 18 -9 36 -13 39 -4 3 -8 14 -10 25 -3 20 -5 27 -14 55 -3 8 -11 33 -17
55 -22 81 -53 181 -67 218 -8 20 -13 41 -12 45 0 4 -2 14 -5 22 -11 29 -36
109 -41 132 -2 13 -14 50 -26 83 -11 33 -23 69 -24 80 -2 11 -4 20 -5 20 -2 0
-5 11 -7 24 -2 14 -11 37 -18 53 -16 31 -7 38 12 11z m2559 -435 c22 -18 54
-44 73 -58 47 -36 151 -118 180 -144 14 -12 40 -32 58 -44 17 -13 32 -27 32
-31 0 -4 -15 -15 -32 -24 -18 -9 -53 -29 -78 -43 -25 -15 -58 -35 -75 -44 -16
-9 -53 -31 -81 -48 -28 -18 -56 -32 -63 -32 -6 0 -11 -4 -11 -8 0 -5 -18 -17
-40 -27 -22 -10 -40 -21 -40 -24 0 -4 -12 -12 -27 -18 -16 -7 -46 -23 -68 -37
-22 -14 -47 -29 -55 -33 -8 -5 -59 -34 -112 -65 -53 -32 -101 -58 -106 -58 -6
0 -12 -7 -16 -15 -3 -8 -9 -14 -13 -13 -10 3 -121 -61 -129 -73 -3 -5 -9 -7
-14 -4 -4 3 -13 -2 -20 -10 -7 -8 -19 -15 -26 -15 -8 0 -14 -4 -14 -10 0 -5
-5 -10 -10 -10 -6 0 -29 -11 -51 -26 -22 -14 -56 -34 -75 -45 -20 -11 -46 -27
-60 -35 -13 -9 -24 -13 -24 -9 0 6 72 98 90 115 4 4 101 120 212 255 9 11 56
68 105 126 48 58 104 125 123 149 19 24 46 56 60 72 46 52 49 56 43 62 -4 3 1
6 10 6 10 0 17 4 17 8 0 5 10 20 21 33 12 13 33 39 48 58 14 19 36 45 49 57
12 13 22 28 22 34 0 6 4 9 8 6 5 -3 16 8 26 25 9 16 19 29 21 29 2 0 21 -15
42 -32z m296 -560 c-10 -18 -22 -37 -26 -43 -12 -16 -377 -607 -377 -611 0 -3
-16 -27 -35 -54 -19 -27 -35 -52 -35 -55 0 -2 -22 -39 -49 -82 -149 -239 -201
-324 -201 -332 0 -5 -4 -11 -8 -13 -4 -1 -25 -32 -47 -68 -21 -36 -48 -78 -59
-95 -12 -16 -21 -32 -21 -35 -1 -6 -48 -83 -74 -120 -10 -14 -26 -41 -36 -60
-10 -19 -21 -37 -24 -40 -4 -3 -27 -38 -51 -79 -25 -40 -55 -90 -67 -110 -12
-20 -34 -57 -49 -83 -15 -27 -31 -48 -35 -48 -4 0 -11 -9 -14 -20 -4 -11 -33
-62 -66 -113 -33 -50 -62 -100 -66 -109 -3 -10 -9 -18 -14 -18 -5 0 -9 -5 -9
-11 0 -6 -20 -42 -45 -80 -24 -38 -41 -69 -37 -69 4 0 2 -4 -4 -8 -5 -4 -21
-25 -34 -47 -13 -22 -26 -42 -29 -45 -4 -3 -15 -21 -25 -40 -11 -19 -22 -37
-25 -40 -3 -3 -12 -15 -18 -27 -59 -106 -66 -110 -57 -32 4 35 8 83 8 106 1
24 3 43 6 43 3 0 5 21 6 48 1 41 6 106 18 222 3 19 7 73 10 120 4 47 9 103 11
125 6 51 16 183 20 255 2 30 5 57 6 60 1 3 3 19 4 35 2 17 3 32 4 35 1 3 4 39
6 80 6 98 13 158 20 170 3 5 1 11 -5 15 -6 4 -7 11 -4 17 7 12 13 56 18 149 1
30 6 61 10 67 3 6 2 13 -4 17 -6 4 -7 12 -1 24 6 10 11 42 12 72 3 73 12 94
48 109 17 7 31 16 31 21 0 5 6 9 14 9 7 0 25 9 40 21 14 11 26 17 26 14 0 -4
7 -1 16 6 9 8 53 35 98 61 102 59 226 130 340 196 49 29 93 52 97 52 5 0 9 4
9 9 0 5 9 12 20 16 10 3 61 31 112 62 51 30 103 59 115 64 13 5 23 14 23 20 0
7 3 10 6 7 5 -5 173 87 199 110 6 4 25 15 43 22 17 8 32 18 32 22 0 5 5 8 10
8 6 0 35 16 65 35 30 19 55 33 55 30 0 -2 24 12 52 31 29 19 54 34 56 34 2 0
-5 -14 -15 -32z"/>
</g>
</svg>
