<?xml version="1.0" encoding="utf-8"?>
<!-- Generator: Adobe Illustrator 25.2.3, SVG Export Plug-In . SVG Version: 6.00 Build 0)  -->
<svg version="1.1" id="Layer_1" xmlns="http://www.w3.org/2000/svg" xmlns:xlink="http://www.w3.org/1999/xlink" x="0px" y="0px"
	 viewBox="0 0 29 29" style="enable-background:new 0 0 29 29;" xml:space="preserve">
<style type="text/css">
	.st0{fill:url(#SVGID_1_);}
	.st1{fill:url(#SVGID_2_);}
	.st2{fill:url(#SVGID_3_);}
	.st3{fill:url(#SVGID_4_);}
	.st4{fill:url(#SVGID_5_);}
	.st5{fill:url(#SVGID_6_);}
	.st6{fill:url(#SVGID_7_);}
	.st7{fill:url(#SVGID_8_);}
	.st8{fill:url(#SVGID_9_);}
	.st9{fill:url(#SVGID_10_);}
	.st10{fill:url(#SVGID_11_);}
	.st11{fill:url(#SVGID_12_);}
	.st12{fill:url(#SVGID_13_);}
	.st13{fill:url(#SVGID_14_);}
	.st14{fill:url(#SVGID_15_);}
	.st15{fill:url(#SVGID_16_);}
	.st16{fill:url(#SVGID_17_);}
	.st17{fill:url(#SVGID_18_);}
	.st18{fill:url(#SVGID_19_);}
	.st19{fill:url(#SVGID_20_);}
	.st20{fill:url(#SVGID_21_);}
	.st21{fill:url(#SVGID_22_);}
	.st22{fill:url(#SVGID_23_);}
	.st23{fill:url(#SVGID_24_);}
	.st24{fill:url(#SVGID_25_);}
	.st25{fill:url(#SVGID_26_);}
	.st26{fill:url(#SVGID_27_);}
	.st27{fill:url(#SVGID_28_);}
	.st28{fill:url(#SVGID_29_);}
	.st29{fill:url(#SVGID_30_);}
	.st30{fill:url(#SVGID_31_);}
	.st31{fill:url(#SVGID_32_);}
	.st32{fill:url(#SVGID_33_);}
	.st33{fill:url(#SVGID_34_);}
</style>
<g>
	<g>
		<g>
			<linearGradient id="SVGID_1_" gradientUnits="userSpaceOnUse" x1="6.466" y1="27.4185" x2="8.44" y2="27.4185">
				<stop  offset="1.201920e-02" style="stop-color:#FF002E"/>
				<stop  offset="1" style="stop-color:#FF7A00"/>
			</linearGradient>
			<path class="st0" d="M8.4,28.2v-1.5h-2L8.4,28.2z"/>
		</g>
		<g>
			<linearGradient id="SVGID_2_" gradientUnits="userSpaceOnUse" x1="20.297" y1="27.418" x2="22.273" y2="27.418">
				<stop  offset="1.201920e-02" style="stop-color:#FF002E"/>
				<stop  offset="1" style="stop-color:#FF7A00"/>
			</linearGradient>
			<path class="st1" d="M20.3,26.7v1.5l2-1.5H20.3z"/>
		</g>
		<g>
			<linearGradient id="SVGID_3_" gradientUnits="userSpaceOnUse" x1="8.215" y1="5.856" x2="13.875" y2="5.856">
				<stop  offset="1.201920e-02" style="stop-color:#FF002E"/>
				<stop  offset="1" style="stop-color:#FF7A00"/>
			</linearGradient>
			<path class="st2" d="M9.1,7.7c1.1-1.6,2.9-2.6,4.8-2.8V4c-2.3,0.2-4.4,1.4-5.7,3.3L9.1,7.7z"/>
		</g>
		<g>
			<linearGradient id="SVGID_4_" gradientUnits="userSpaceOnUse" x1="6.959" y1="11.3625" x2="8.584" y2="11.3625">
				<stop  offset="1.201920e-02" style="stop-color:#FF002E"/>
				<stop  offset="1" style="stop-color:#FF7A00"/>
			</linearGradient>
			<path class="st3" d="M7.7,8.1C7.2,9.1,7,10.2,7,11.4c0,1.2,0.3,2.3,0.8,3.3l0.9-0.5c-0.8-1.8-0.8-3.8,0-5.5L7.7,8.1z"/>
		</g>
		<g>
			<linearGradient id="SVGID_5_" gradientUnits="userSpaceOnUse" x1="8.216" y1="11.3625" x2="20.522" y2="11.3625">
				<stop  offset="1.201920e-02" style="stop-color:#FF002E"/>
				<stop  offset="1" style="stop-color:#FF7A00"/>
			</linearGradient>
			<path class="st4" d="M17.8,10.9h1v1h-1V10.9z M14.4,10.9c1.1,0,2,0.9,2,2v2h-1.5v1h-1v-1.1c-0.9-0.2-1.5-1-1.5-1.9h1
				c0,0.5,0.4,1,1,1h1v-1c0-0.5-0.4-1-1-1c-1.1,0-2-0.9-2-2v-2h1.5v-1h1V8c0.9,0.2,1.5,1,1.5,1.9h-1c0-0.5-0.4-1-1-1h-1v1
				C13.4,10.4,13.8,10.9,14.4,10.9z M10.9,11.9h-1v-1h1V11.9z M14.4,5.9c-3,0-5.4,2.4-5.4,5.4c0,1.6,0.7,3.2,2,4.2l-0.6,0.8
				c-0.5-0.4-0.9-0.8-1.2-1.3l-0.9,0.5c1.3,1.9,3.4,3.1,5.7,3.3v-1c-1-0.1-1.9-0.4-2.8-0.9l0.5-0.9c0.8,0.5,1.8,0.8,2.8,0.8
				c3,0,5.4-2.4,5.4-5.4c0-1.6-0.7-3.2-2-4.2l0.6-0.8c0.5,0.4,0.9,0.8,1.2,1.3l0.9-0.5c-1.3-1.9-3.4-3.1-5.7-3.3v1
				c1,0.1,1.9,0.4,2.8,0.9l-0.5,0.9C16.3,6.2,15.3,5.9,14.4,5.9z"/>
		</g>
		<g>
			<linearGradient id="SVGID_6_" gradientUnits="userSpaceOnUse" x1="14.863" y1="16.8685" x2="20.523" y2="16.8685">
				<stop  offset="1.201920e-02" style="stop-color:#FF002E"/>
				<stop  offset="1" style="stop-color:#FF7A00"/>
			</linearGradient>
			<path class="st5" d="M14.9,17.8v1c2.3-0.2,4.4-1.4,5.7-3.3L19.7,15C18.6,16.6,16.8,17.6,14.9,17.8L14.9,17.8z"/>
		</g>
		<g>
			<linearGradient id="SVGID_7_" gradientUnits="userSpaceOnUse" x1="20.155" y1="11.3625" x2="21.779" y2="11.3625">
				<stop  offset="1.201920e-02" style="stop-color:#FF002E"/>
				<stop  offset="1" style="stop-color:#FF7A00"/>
			</linearGradient>
			<path class="st6" d="M21,14.6c0.5-1,0.8-2.1,0.8-3.3c0-1.1-0.3-2.2-0.8-3.3l-0.9,0.5c0.8,1.8,0.8,3.8,0,5.5L21,14.6z"/>
		</g>
		<g>
			<linearGradient id="SVGID_8_" gradientUnits="userSpaceOnUse" x1="21.285" y1="26.6765" x2="28.696" y2="26.6765">
				<stop  offset="1.201920e-02" style="stop-color:#FF002E"/>
				<stop  offset="1" style="stop-color:#FF7A00"/>
			</linearGradient>
			<path class="st7" d="M24.2,24.7v1.7l-3,2.2h7.4l-1-2l1-2L24.2,24.7z"/>
		</g>
		<g>
			<linearGradient id="SVGID_9_" gradientUnits="userSpaceOnUse" x1="4.200000e-02" y1="26.6765" x2="7.452" y2="26.6765">
				<stop  offset="1.201920e-02" style="stop-color:#FF002E"/>
				<stop  offset="1" style="stop-color:#FF7A00"/>
			</linearGradient>
			<path class="st8" d="M4.5,24.7H0l1,2l-1,2h7.4l-3-2.2L4.5,24.7z"/>
		</g>
		<g>
			<linearGradient id="SVGID_10_" gradientUnits="userSpaceOnUse" x1="5.477" y1="22.725" x2="23.261" y2="22.725">
				<stop  offset="1.201920e-02" style="stop-color:#FF002E"/>
				<stop  offset="1" style="stop-color:#FF7A00"/>
			</linearGradient>
			<path class="st9" d="M20.3,24.7l-1.5-2l1.5-2l1.5,2L20.3,24.7z M14.4,24.7l-1.5-2l1.5-2l1.5,2L14.4,24.7z M8.4,24.7l-1.5-2l1.5-2
				l1.5,2L8.4,24.7z M23.3,19.8H5.5v5.9h17.8L23.3,19.8z"/>
		</g>
		<g>
			<linearGradient id="SVGID_11_" gradientUnits="userSpaceOnUse" x1="23.755" y1="2.47" x2="28.696" y2="2.47">
				<stop  offset="1.201920e-02" style="stop-color:#FF002E"/>
				<stop  offset="1" style="stop-color:#FF7A00"/>
			</linearGradient>
			<path class="st10" d="M26.2,3c-0.1-0.2-0.3-0.4-0.5-0.5c0.2-0.1,0.4-0.3,0.5-0.5c0.1,0.2,0.3,0.4,0.5,0.5
				C26.5,2.6,26.4,2.8,26.2,3z M28.2,2c-0.8,0-1.5-0.7-1.5-1.5V0h-1v0.5c0,0.8-0.7,1.5-1.5,1.5h-0.5v1h0.5c0.8,0,1.5,0.7,1.5,1.5
				v0.5h1V4.4c0-0.8,0.7-1.5,1.5-1.5h0.5V2L28.2,2z"/>
		</g>
		<g>
			<linearGradient id="SVGID_12_" gradientUnits="userSpaceOnUse" x1="4.200000e-02" y1="7.41" x2="4.983" y2="7.41">
				<stop  offset="1.201920e-02" style="stop-color:#FF002E"/>
				<stop  offset="1" style="stop-color:#FF7A00"/>
			</linearGradient>
			<path class="st11" d="M2.5,6.9C2.7,7.1,2.8,7.3,3,7.4C2.8,7.6,2.7,7.7,2.5,7.9C2.4,7.7,2.2,7.6,2,7.4C2.2,7.3,2.4,7.1,2.5,6.9z
				 M2,9.4v0.5h1V9.4c0-0.8,0.7-1.5,1.5-1.5H5v-1H4.5C3.7,6.9,3,6.3,3,5.4V4.9H2v0.5c0,0.8-0.7,1.5-1.5,1.5H0v1h0.5
				C1.4,7.9,2,8.6,2,9.4z"/>
		</g>
		<g>
			<linearGradient id="SVGID_13_" gradientUnits="userSpaceOnUse" x1="3.994" y1="2.4705" x2="8.934" y2="2.4705">
				<stop  offset="1.201920e-02" style="stop-color:#FF002E"/>
				<stop  offset="1" style="stop-color:#FF7A00"/>
			</linearGradient>
			<path class="st12" d="M6.5,2C6.6,2.2,6.8,2.3,7,2.5C6.8,2.6,6.6,2.8,6.5,3C6.3,2.8,6.1,2.6,6,2.5C6.1,2.3,6.3,2.2,6.5,2z M6,4.4
				v0.5h1V4.4C7,3.6,7.6,3,8.4,3h0.5V2H8.4C7.6,2,7,1.3,7,0.5V0H6v0.5C6,1.3,5.3,2,4.5,2H4v1h0.5C5.3,3,6,3.6,6,4.4L6,4.4z"/>
		</g>
		<g>
			<linearGradient id="SVGID_14_" gradientUnits="userSpaceOnUse" x1="22.767" y1="10.8685" x2="27.708" y2="10.8685">
				<stop  offset="1.201920e-02" style="stop-color:#FF002E"/>
				<stop  offset="1" style="stop-color:#FF7A00"/>
			</linearGradient>
			<path class="st13" d="M25.7,10.9c-0.2,0.1-0.4,0.3-0.5,0.5c-0.1-0.2-0.3-0.4-0.5-0.5c0.2-0.1,0.4-0.3,0.5-0.5
				C25.4,10.6,25.6,10.7,25.7,10.9L25.7,10.9z M24.7,8.4v0.5c0,0.8-0.7,1.5-1.5,1.5h-0.5v1h0.5c0.8,0,1.5,0.7,1.5,1.5v0.5h1v-0.5
				c0-0.8,0.7-1.5,1.5-1.5h0.5v-1h-0.5c-0.8,0-1.5-0.7-1.5-1.5V8.4H24.7z"/>
		</g>
		<g>
			<linearGradient id="SVGID_15_" gradientUnits="userSpaceOnUse" x1="19.309" y1="0.494" x2="20.297" y2="0.494">
				<stop  offset="1.201920e-02" style="stop-color:#FF002E"/>
				<stop  offset="1" style="stop-color:#FF7A00"/>
			</linearGradient>
			<path class="st14" d="M19.3,0h1v1h-1L19.3,0z"/>
		</g>
		<g>
			<linearGradient id="SVGID_16_" gradientUnits="userSpaceOnUse" x1="19.309" y1="2.47" x2="20.297" y2="2.47">
				<stop  offset="1.201920e-02" style="stop-color:#FF002E"/>
				<stop  offset="1" style="stop-color:#FF7A00"/>
			</linearGradient>
			<path class="st15" d="M19.3,2h1v1h-1L19.3,2z"/>
		</g>
		<g>
			<linearGradient id="SVGID_17_" gradientUnits="userSpaceOnUse" x1="20.297" y1="1.482" x2="21.285" y2="1.482">
				<stop  offset="1.201920e-02" style="stop-color:#FF002E"/>
				<stop  offset="1" style="stop-color:#FF7A00"/>
			</linearGradient>
			<path class="st16" d="M20.3,1h1v1h-1V1z"/>
		</g>
		<g>
			<linearGradient id="SVGID_18_" gradientUnits="userSpaceOnUse" x1="18.321" y1="1.482" x2="19.309" y2="1.482">
				<stop  offset="1.201920e-02" style="stop-color:#FF002E"/>
				<stop  offset="1" style="stop-color:#FF7A00"/>
			</linearGradient>
			<path class="st17" d="M18.3,1h1v1h-1V1z"/>
		</g>
		<g>
			<linearGradient id="SVGID_19_" gradientUnits="userSpaceOnUse" x1="3.5" y1="13.339" x2="4.489" y2="13.339">
				<stop  offset="1.201920e-02" style="stop-color:#FF002E"/>
				<stop  offset="1" style="stop-color:#FF7A00"/>
			</linearGradient>
			<path class="st18" d="M3.5,12.8h1v1h-1V12.8z"/>
		</g>
		<g>
			<linearGradient id="SVGID_20_" gradientUnits="userSpaceOnUse" x1="3.5" y1="15.3145" x2="4.489" y2="15.3145">
				<stop  offset="1.201920e-02" style="stop-color:#FF002E"/>
				<stop  offset="1" style="stop-color:#FF7A00"/>
			</linearGradient>
			<path class="st19" d="M3.5,14.8h1v1h-1V14.8z"/>
		</g>
		<g>
			<linearGradient id="SVGID_21_" gradientUnits="userSpaceOnUse" x1="4.489" y1="14.3265" x2="5.477" y2="14.3265">
				<stop  offset="1.201920e-02" style="stop-color:#FF002E"/>
				<stop  offset="1" style="stop-color:#FF7A00"/>
			</linearGradient>
			<path class="st20" d="M4.5,13.8h1v1h-1V13.8z"/>
		</g>
		<g>
			<linearGradient id="SVGID_22_" gradientUnits="userSpaceOnUse" x1="2.512" y1="14.3265" x2="3.5" y2="14.3265">
				<stop  offset="1.201920e-02" style="stop-color:#FF002E"/>
				<stop  offset="1" style="stop-color:#FF7A00"/>
			</linearGradient>
			<path class="st21" d="M2.5,13.8h1v1h-1L2.5,13.8z"/>
		</g>
		<g>
			<linearGradient id="SVGID_23_" gradientUnits="userSpaceOnUse" x1="1.03" y1="16.797" x2="2.019" y2="16.797">
				<stop  offset="1.201920e-02" style="stop-color:#FF002E"/>
				<stop  offset="1" style="stop-color:#FF7A00"/>
			</linearGradient>
			<path class="st22" d="M1,16.3h1v1H1V16.3z"/>
		</g>
		<g>
			<linearGradient id="SVGID_24_" gradientUnits="userSpaceOnUse" x1="1.03" y1="18.773" x2="2.019" y2="18.773">
				<stop  offset="1.201920e-02" style="stop-color:#FF002E"/>
				<stop  offset="1" style="stop-color:#FF7A00"/>
			</linearGradient>
			<path class="st23" d="M1,18.3h1v1H1V18.3z"/>
		</g>
		<g>
			<linearGradient id="SVGID_25_" gradientUnits="userSpaceOnUse" x1="2.019" y1="17.7845" x2="3.007" y2="17.7845">
				<stop  offset="1.201920e-02" style="stop-color:#FF002E"/>
				<stop  offset="1" style="stop-color:#FF7A00"/>
			</linearGradient>
			<path class="st24" d="M2,17.3h1v1H2V17.3z"/>
		</g>
		<g>
			<linearGradient id="SVGID_26_" gradientUnits="userSpaceOnUse" x1="4.200000e-02" y1="17.7845" x2="1.031" y2="17.7845">
				<stop  offset="1.201920e-02" style="stop-color:#FF002E"/>
				<stop  offset="1" style="stop-color:#FF7A00"/>
			</linearGradient>
			<path class="st25" d="M0,17.3h1v1H0V17.3z"/>
		</g>
		<g>
			<linearGradient id="SVGID_27_" gradientUnits="userSpaceOnUse" x1="21.779" y1="4.446" x2="22.767" y2="4.446">
				<stop  offset="1.201920e-02" style="stop-color:#FF002E"/>
				<stop  offset="1" style="stop-color:#FF7A00"/>
			</linearGradient>
			<path class="st26" d="M21.8,4h1v1h-1L21.8,4z"/>
		</g>
		<g>
			<linearGradient id="SVGID_28_" gradientUnits="userSpaceOnUse" x1="21.779" y1="6.422" x2="22.767" y2="6.422">
				<stop  offset="1.201920e-02" style="stop-color:#FF002E"/>
				<stop  offset="1" style="stop-color:#FF7A00"/>
			</linearGradient>
			<path class="st27" d="M21.8,5.9h1v1h-1L21.8,5.9z"/>
		</g>
		<g>
			<linearGradient id="SVGID_29_" gradientUnits="userSpaceOnUse" x1="22.767" y1="5.434" x2="23.755" y2="5.434">
				<stop  offset="1.201920e-02" style="stop-color:#FF002E"/>
				<stop  offset="1" style="stop-color:#FF7A00"/>
			</linearGradient>
			<path class="st28" d="M22.8,4.9h1v1h-1V4.9z"/>
		</g>
		<g>
			<linearGradient id="SVGID_30_" gradientUnits="userSpaceOnUse" x1="20.791" y1="5.434" x2="21.779" y2="5.434">
				<stop  offset="1.201920e-02" style="stop-color:#FF002E"/>
				<stop  offset="1" style="stop-color:#FF7A00"/>
			</linearGradient>
			<path class="st29" d="M20.8,4.9h1v1h-1V4.9z"/>
		</g>
		<g>
			<linearGradient id="SVGID_31_" gradientUnits="userSpaceOnUse" x1="26.719" y1="16.797" x2="27.708" y2="16.797">
				<stop  offset="1.201920e-02" style="stop-color:#FF002E"/>
				<stop  offset="1" style="stop-color:#FF7A00"/>
			</linearGradient>
			<path class="st30" d="M26.7,16.3h1v1h-1L26.7,16.3z"/>
		</g>
		<g>
			<linearGradient id="SVGID_32_" gradientUnits="userSpaceOnUse" x1="26.719" y1="18.773" x2="27.708" y2="18.773">
				<stop  offset="1.201920e-02" style="stop-color:#FF002E"/>
				<stop  offset="1" style="stop-color:#FF7A00"/>
			</linearGradient>
			<path class="st31" d="M26.7,18.3h1v1h-1L26.7,18.3z"/>
		</g>
		<g>
			<linearGradient id="SVGID_33_" gradientUnits="userSpaceOnUse" x1="27.707" y1="17.7845" x2="28.696" y2="17.7845">
				<stop  offset="1.201920e-02" style="stop-color:#FF002E"/>
				<stop  offset="1" style="stop-color:#FF7A00"/>
			</linearGradient>
			<path class="st32" d="M27.7,17.3h1v1h-1V17.3z"/>
		</g>
		<g>
			<linearGradient id="SVGID_34_" gradientUnits="userSpaceOnUse" x1="25.731" y1="17.7845" x2="26.719" y2="17.7845">
				<stop  offset="1.201920e-02" style="stop-color:#FF002E"/>
				<stop  offset="1" style="stop-color:#FF7A00"/>
			</linearGradient>
			<path class="st33" d="M25.7,17.3h1v1h-1V17.3z"/>
		</g>
	</g>
</g>
</svg>
