<?xml version="1.0" encoding="utf-8"?>
<!-- Generator: Adobe Illustrator 25.2.3, SVG Export Plug-In . SVG Version: 6.00 Build 0)  -->
<svg version="1.1" id="Layer_1" xmlns="http://www.w3.org/2000/svg" xmlns:xlink="http://www.w3.org/1999/xlink" x="0px" y="0px"
	 viewBox="0 0 512 512" style="enable-background:new 0 0 512 512;" xml:space="preserve">
<style type="text/css">
	.st0{fill:#001C7E;}
</style>
<path class="st0" d="M142.6,396.9l7.5-13l49.1,28.3l-7.5,13L142.6,396.9z"/>
<path class="st0" d="M142.5,115.3L191.6,87l7.5,13L150,128.3L142.5,115.3z"/>
<path class="st0" d="M313.8,99.9l7.5-13l49.1,28.4l-7.5,13L313.8,99.9z"/>
<path class="st0" d="M420.4,227.6h15v57.1h-15V227.6z"/>
<path class="st0" d="M256.5,395.8c-32,0-58.1,26.1-58.1,58.1s26.1,58.1,58.1,58.1s58.1-26.1,58.1-58.1S288.5,395.8,256.5,395.8z
	 M256.5,497c-23.8,0-43.1-19.3-43.1-43.1c0-23.8,19.3-43.1,43.1-43.1s43.1,19.3,43.1,43.1S280.2,497,256.5,497z"/>
<path class="st0" d="M256.5,116.2c32,0,58.1-26.1,58.1-58.1S288.5,0,256.5,0s-58.1,26.1-58.1,58.1S224.5,116.2,256.5,116.2z
	 M256.5,15c23.8,0,43.1,19.3,43.1,43.1s-19.3,43.1-43.1,43.1s-43.1-19.3-43.1-43.1S232.7,15,256.5,15z"/>
<path class="st0" d="M256.5,314.1c32,0,58.1-26.1,58.1-58.1s-26.1-58-58.1-58s-58.1,26-58.1,58S224.5,314.1,256.5,314.1z M256.5,213
	c23.8,0,43.1,19.3,43.1,43.1s-19.3,43.1-43.1,43.1s-43.1-19.3-43.1-43.1S232.7,213,256.5,213z"/>
<path class="st0" d="M427.9,214.9c32,0,58.1-26.1,58.1-58.1s-26.1-58.1-58.1-58.1s-58.1,26.1-58.1,58.1S395.9,214.9,427.9,214.9z
	 M427.9,113.7c23.8,0,43.1,19.3,43.1,43.1s-19.3,43.1-43.1,43.1c-23.8,0-43.1-19.3-43.1-43.1S404.1,113.7,427.9,113.7z"/>
<path class="st0" d="M427.9,297c-32,0-58.1,26.1-58.1,58.1s26.1,58.1,58.1,58.1s58.1-26.1,58.1-58.1S459.9,297,427.9,297z
	 M427.9,398.1c-23.8,0-43.1-19.3-43.1-43.1c0-23.8,19.3-43.1,43.1-43.1c23.8,0,43.1,19.3,43.1,43.1
	C471,378.8,451.6,398.1,427.9,398.1z"/>
<path class="st0" d="M85.1,214.9c32,0,58.1-26.1,58.1-58.1s-26.1-58.1-58.1-58.1S27,124.8,27,156.8S53.1,214.9,85.1,214.9z
	 M85.1,113.7c23.8,0,43.1,19.3,43.1,43.1s-19.3,43.1-43.1,43.1S42,180.6,42,156.8S61.3,113.7,85.1,113.7z"/>
<path class="st0" d="M85.1,297c-32,0-58.1,26-58.1,58.1s26.1,58.1,58.1,58.1s58.1-26.1,58.1-58.1S117.1,297,85.1,297z M85.1,398.1
	C61.3,398.1,42,378.8,42,355c0-23.8,19.3-43.1,43.1-43.1s43.1,19.3,43.1,43.1C128.2,378.8,108.8,398.1,85.1,398.1z"/>
<path class="st0" d="M249,128.8h15v56.7h-15V128.8z"/>
<path class="st0" d="M142.3,313.4l49.3-28.5l7.5,13l-49.3,28.5L142.3,313.4z"/>
<path class="st0" d="M313.8,297.8l7.5-13l49.3,28.5l-7.5,13L313.8,297.8z"/>
<path class="st0" d="M279.9,477.3l-10.6-10.6c3.4-3.4,5.3-7.9,5.3-12.8c0-2.5-0.5-4.8-1.4-7.1l13.8-5.9c1.7,4.1,2.6,8.5,2.6,12.9
	C289.6,462.8,286.1,471.1,279.9,477.3z M243.7,441.1l-10.6-10.6c4.6-4.6,10.5-7.8,16.9-9l2.9,14.7
	C249.4,436.9,246.2,438.6,243.7,441.1z M269.2,441c-2.5-2.5-5.7-4.2-9.2-4.9l2.8-14.7c6.4,1.2,12.3,4.3,16.9,8.9L269.2,441z"/>
<path class="st0" d="M279.9,81.5l-10.6-10.6c3.4-3.4,5.3-7.9,5.3-12.8c0-2.5-0.5-4.8-1.4-7.1l13.8-5.9c1.7,4.1,2.6,8.5,2.6,12.9
	C289.6,66.9,286.1,75.2,279.9,81.5z M243.7,45.3l-10.6-10.6c4.6-4.6,10.5-7.8,16.9-9l2.9,14.7C249.4,41.1,246.2,42.8,243.7,45.3z
	 M269.2,45.2c-2.5-2.5-5.7-4.2-9.2-4.9l2.8-14.7c6.4,1.2,12.3,4.3,16.9,8.9L269.2,45.2z"/>
<path class="st0" d="M279.9,279.4l-10.6-10.6c3.4-3.4,5.3-7.9,5.3-12.8c0-2.5-0.5-4.8-1.4-7.1L287,243c1.7,4.1,2.6,8.5,2.6,12.9
	C289.6,264.9,286.1,273.2,279.9,279.4z M243.7,243.3l-10.6-10.6c4.6-4.6,10.5-7.8,16.9-9l2.9,14.7
	C249.4,239,246.2,240.7,243.7,243.3z M269.2,243.2c-2.5-2.5-5.7-4.2-9.2-4.9l2.8-14.7c6.4,1.2,12.3,4.3,16.9,8.9L269.2,243.2z"/>
<path class="st0" d="M451.3,180.2l-10.6-10.6c3.4-3.4,5.3-7.9,5.3-12.8c0-2.5-0.5-4.8-1.4-7.1l13.8-5.8c1.7,4.1,2.6,8.5,2.6,12.9
	C461,165.6,457.5,173.9,451.3,180.2z M415.1,144l-10.6-10.6c4.6-4.6,10.5-7.8,16.9-9l2.9,14.7C420.8,139.8,417.6,141.5,415.1,144z
	 M440.6,143.9c-2.5-2.5-5.7-4.2-9.2-4.9l2.8-14.7c6.4,1.2,12.3,4.3,16.9,8.9L440.6,143.9z"/>
<path class="st0" d="M451.3,378.5l-10.6-10.6c3.4-3.4,5.3-7.9,5.3-12.8c0-2.5-0.5-4.8-1.4-7.1l13.8-5.9c1.7,4.1,2.6,8.5,2.6,12.9
	C461,363.9,457.5,372.2,451.3,378.5z M415.1,342.3l-10.6-10.6c4.6-4.6,10.5-7.8,16.9-9l2.9,14.7C420.8,338,417.6,339.7,415.1,342.3z
	 M440.6,342.2c-2.5-2.5-5.7-4.2-9.2-4.9l2.8-14.7c6.4,1.2,12.3,4.3,16.9,8.9L440.6,342.2z"/>
<path class="st0" d="M108.5,180.2l-10.6-10.6c3.4-3.4,5.3-7.9,5.3-12.8c0-2.5-0.5-4.8-1.4-7.1l13.8-5.8c1.7,4.1,2.6,8.5,2.6,12.9
	C118.2,165.6,114.7,173.9,108.5,180.2z M72.3,144l-10.6-10.6c4.6-4.6,10.5-7.8,16.9-9l2.9,14.7C78,139.8,74.8,141.5,72.3,144z
	 M97.8,143.9c-2.5-2.5-5.7-4.2-9.2-4.9l2.8-14.7c6.4,1.2,12.3,4.3,16.9,8.9L97.8,143.9z"/>
<path class="st0" d="M108.5,378.5l-10.6-10.6c3.4-3.4,5.3-7.9,5.3-12.8c0-2.5-0.5-4.8-1.4-7.1l13.8-5.9c1.7,4.1,2.6,8.5,2.6,12.9
	C118.2,363.9,114.7,372.2,108.5,378.5z M72.3,342.3l-10.6-10.6c4.6-4.6,10.5-7.8,16.9-9l2.9,14.7C78,338,74.8,339.7,72.3,342.3z
	 M97.8,342.2c-2.5-2.5-5.7-4.2-9.2-4.9l2.8-14.7c6.4,1.2,12.3,4.3,16.9,8.9L97.8,342.2z"/>
</svg>
