<?xml version="1.0" encoding="utf-8"?>
<!-- Generator: Adobe Illustrator 25.2.3, SVG Export Plug-In . SVG Version: 6.00 Build 0)  -->
<svg version="1.1" id="Capa_1" xmlns="http://www.w3.org/2000/svg" xmlns:xlink="http://www.w3.org/1999/xlink" x="0px" y="0px"
	 viewBox="0 0 512 512" style="enable-background:new 0 0 512 512;" xml:space="preserve">
<style type="text/css">
	.st0{fill:url(#SVGID_1_);}
	.st1{fill:url(#SVGID_2_);}
	.st2{fill:url(#SVGID_3_);}
</style>
<g>
	<linearGradient id="SVGID_1_" gradientUnits="userSpaceOnUse" x1="48.6222" y1="240.575" x2="368.1231" y2="240.575">
		<stop  offset="1.201920e-02" style="stop-color:#FF002E"/>
		<stop  offset="1" style="stop-color:#FF7A00"/>
	</linearGradient>
	<path class="st0" d="M236,430.4c-38-28.3-62.7-73.5-62.7-124.4c0-85.5,69.5-155,155-155c13.3,0,26.3,1.7,38.6,4.9
		c0.1-0.1,0.1-0.3,0.2-0.4c2.2-5.7,0.8-12.3-3.7-16.5L218.6,4c-5.8-5.4-14.7-5.4-20.5,0L53.4,139c-9.9,9.3-3.4,26,10.2,26h29.8
		v301.2c0,8.3,6.7,15,15,15h54v-39.9c0-5.5,4.5-10,10-10l63.3-0.1L236,430.4z"/>
	<linearGradient id="SVGID_2_" gradientUnits="userSpaceOnUse" x1="192.4" y1="486.4" x2="463.4" y2="486.4">
		<stop  offset="1.201920e-02" style="stop-color:#FF002E"/>
		<stop  offset="1" style="stop-color:#FF7A00"/>
	</linearGradient>
	<path class="st1" d="M192.4,461.2V497c0,8.3,6.7,15,15,15c14.2,0,226.8-0.3,241-0.3c8.3,0,15-6.7,15-15v-35.9L192.4,461.2z"/>
	<linearGradient id="SVGID_3_" gradientUnits="userSpaceOnUse" x1="203.4" y1="306" x2="453.4" y2="306">
		<stop  offset="1.201920e-02" style="stop-color:#FF002E"/>
		<stop  offset="1" style="stop-color:#FF7A00"/>
	</linearGradient>
	<path class="st2" d="M203.4,306c0,68.9,56.1,125,125,125s125-56.1,125-125s-56.1-125-125-125S203.4,237.1,203.4,306z M285.6,263.2
		c5.8-5.8,15.3-5.8,21.1,0c5.8,5.8,5.8,15.3,0,21.1c-5.8,5.8-15.3,5.8-21.1,0S279.7,269,285.6,263.2z M370.4,348
		c-5.8,5.8-15.3,5.8-21.1,0c-5.8-5.8-5.8-15.3,0-21.1s15.3-5.8,21.1,0C376.3,332.7,376.3,342.2,370.4,348z M371.1,264
		c5.9,5.9,5.9,15.4,0,21.2l-63.6,63.6c-5.9,5.9-15.4,5.9-21.2,0c-5.9-5.9-5.9-15.4,0-21.2l63.6-63.6
		C355.8,258.1,365.3,258.1,371.1,264L371.1,264z"/>
</g>
</svg>
