<?xml version="1.0" encoding="utf-8"?>
<!-- Generator: Adobe Illustrator 25.2.3, SVG Export Plug-In . SVG Version: 6.00 Build 0)  -->
<svg version="1.1" id="_x33_0" xmlns="http://www.w3.org/2000/svg" xmlns:xlink="http://www.w3.org/1999/xlink" x="0px" y="0px"
	 viewBox="0 0 512 512" style="enable-background:new 0 0 512 512;" xml:space="preserve">
<style type="text/css">
	.st0{fill:url(#SVGID_1_);}
	.st1{fill:url(#SVGID_2_);}
	.st2{fill:url(#SVGID_3_);}
	.st3{fill:url(#SVGID_4_);}
	.st4{fill:url(#SVGID_5_);}
	.st5{fill:url(#SVGID_6_);}
	.st6{fill:url(#SVGID_7_);}
	.st7{fill:url(#SVGID_8_);}
	.st8{fill:url(#SVGID_9_);}
	.st9{fill:url(#SVGID_10_);}
	.st10{fill:url(#SVGID_11_);}
	.st11{fill:url(#SVGID_12_);}
	.st12{fill:url(#SVGID_13_);}
	.st13{fill:url(#SVGID_14_);}
	.st14{fill:url(#SVGID_15_);}
	.st15{fill:url(#SVGID_16_);}
	.st16{fill:url(#SVGID_17_);}
	.st17{fill:url(#SVGID_18_);}
	.st18{fill:url(#SVGID_19_);}
	.st19{fill:url(#SVGID_20_);}
	.st20{fill:url(#SVGID_21_);}
	.st21{fill:url(#SVGID_22_);}
	.st22{fill:url(#SVGID_23_);}
	.st23{fill:url(#SVGID_24_);}
	.st24{fill:url(#SVGID_25_);}
	.st25{fill:url(#SVGID_26_);}
	.st26{fill:url(#SVGID_27_);}
</style>
<g>
	<linearGradient id="SVGID_1_" gradientUnits="userSpaceOnUse" x1="160" y1="383.85" x2="234.7" y2="383.85">
		<stop  offset="1.201920e-02" style="stop-color:#FF002E"/>
		<stop  offset="1" style="stop-color:#FF7A00"/>
	</linearGradient>
	<path class="st0" d="M183.1,366.7l-23.1-1.8v20.7l74.7,17.2L183.1,366.7z"/>
	<linearGradient id="SVGID_2_" gradientUnits="userSpaceOnUse" x1="89.9" y1="327.05" x2="157.3" y2="327.05">
		<stop  offset="1.201920e-02" style="stop-color:#FF002E"/>
		<stop  offset="1" style="stop-color:#FF7A00"/>
	</linearGradient>
	<path class="st1" d="M89.9,308.5l12,35.9l55.4,4.3l-61.9-43.3C93.6,306.4,91.7,307.4,89.9,308.5L89.9,308.5z"/>
	<linearGradient id="SVGID_3_" gradientUnits="userSpaceOnUse" x1="24" y1="132.9" x2="232" y2="132.9">
		<stop  offset="1.201920e-02" style="stop-color:#FF002E"/>
		<stop  offset="1" style="stop-color:#FF7A00"/>
	</linearGradient>
	<path class="st2" d="M79.6,236.8l8.4,5V204l-18.1-13.6c-8.7-6.5-13.9-16.9-13.9-27.7c0-18.2,14.1-33.2,32-34.6
		c0.3-13.1,6.6-25.2,16.8-33.1c-0.5-2.3-0.8-4.6-0.8-7c0-17.6,14.3-32,32-32v16l0,0c-8.8,0-16,7.2-16,16c0,4.3,1.7,8.3,4.7,11.3
		s7,4.7,11.2,4.7l0,0c4.4,0,11.7,0,20.4,0c-2.8-4.8-4.4-10.2-4.4-16c0-17.6,14.3-32,32-32v16c-8.8,0-16,7.2-16,16
		c0,4.3,1.7,8.3,4.7,11.3s7,4.7,11.2,4.7l0,0l0,0c2.7,0,5.4,0,8,0l0,0c10.7,0,20.7-4.2,28.2-11.7c7.8-7.6,12-17.6,12-28.3
		c0-22.1-17.9-40-40-40h-53.4C75.4,24,24,75.4,24,138.6C24,178.6,45.3,216.3,79.6,236.8z"/>
	<linearGradient id="SVGID_4_" gradientUnits="userSpaceOnUse" x1="24" y1="403" x2="247.9" y2="403">
		<stop  offset="1.201920e-02" style="stop-color:#FF002E"/>
		<stop  offset="1" style="stop-color:#FF7A00"/>
	</linearGradient>
	<path class="st3" d="M144,398.4v-34.6l-53.9-4.1L76.2,318C43.5,343.5,24,382.7,24,425.4V488h64v-49.4c0-12.5-4.8-24.2-13.7-33
		l11.3-11.3c11.8,11.8,18.3,27.5,18.3,44.3V488h144v-33.3c0-11.3-1.2-22.3-3.5-33.1L144,398.4z"/>
	<linearGradient id="SVGID_5_" gradientUnits="userSpaceOnUse" x1="72" y1="244.6" x2="231.8" y2="244.6">
		<stop  offset="1.201920e-02" style="stop-color:#FF002E"/>
		<stop  offset="1" style="stop-color:#FF7A00"/>
	</linearGradient>
	<path class="st4" d="M190.4,331.8l-24-20c-9.2-7.6-14.4-18.8-14.4-30.7v-33h32l0,0c8.5,0,16.6-3.3,22.6-9.4c2-2,3.6-4.3,5-6.6h-9.7
		c-14.1,0-26.7-7.8-33-20.4l14.3-7.2c3.6,7.1,10.7,11.6,18.7,11.6H216v-36.9l15.8-7.9c-1.6-20.9-12.5-44.3-18.4-55.4
		c-6.7,2.8-13.9,4.2-21.4,4.2l0,0c-22.5,0-46.2,0-56,0c0,0,0,0-0.1,0c-8.5,0-16.5-3.3-22.6-9.3c-0.4-0.4-0.6-0.8-0.9-1.1
		c-5.3,5-8.5,12.1-8.5,19.7V144H90.7c-10.3,0-18.7,8.4-18.7,18.7c0,5.8,2.8,11.4,7.5,14.9L104,196v95.8l125.3,87.7
		C219.7,361.5,206.6,345.2,190.4,331.8L190.4,331.8z"/>
	<linearGradient id="SVGID_6_" gradientUnits="userSpaceOnUse" x1="264" y1="232" x2="472" y2="232">
		<stop  offset="1.201920e-02" style="stop-color:#FF002E"/>
		<stop  offset="1" style="stop-color:#FF7A00"/>
	</linearGradient>
	<path class="st5" d="M368,128c-57.3,0-104,46.7-104,104s46.7,104,104,104s104-46.7,104-104S425.3,128,368,128z M368,312
		c-44.2,0-80-35.8-80-80s35.8-80,80-80s80,35.8,80,80S412.2,312,368,312z"/>
	<linearGradient id="SVGID_7_" gradientUnits="userSpaceOnUse" x1="344" y1="232" x2="392" y2="232">
		<stop  offset="1.201920e-02" style="stop-color:#FF002E"/>
		<stop  offset="1" style="stop-color:#FF7A00"/>
	</linearGradient>
	<path class="st6" d="M376,193.5V176h-16v16h-16v24c0,13.2,10.8,24,24,24c4.4,0,8,3.6,8,8v8h-8c-4.4,0-8-3.6-8-8v-8h-16v8
		c0,10.4,6.7,19.2,16,22.5V288h16v-16h16v-24c0-13.2-10.8-24-24-24c-4.4,0-8-3.6-8-8v-8h8c4.4,0,8,3.6,8,8v8h16v-8
		C392,205.6,385.3,196.8,376,193.5z"/>
	<linearGradient id="SVGID_8_" gradientUnits="userSpaceOnUse" x1="472" y1="96" x2="488" y2="96">
		<stop  offset="1.201920e-02" style="stop-color:#FF002E"/>
		<stop  offset="1" style="stop-color:#FF7A00"/>
	</linearGradient>
	<path class="st7" d="M472,88h16v16h-16V88z"/>
	<linearGradient id="SVGID_9_" gradientUnits="userSpaceOnUse" x1="472" y1="128" x2="488" y2="128">
		<stop  offset="1.201920e-02" style="stop-color:#FF002E"/>
		<stop  offset="1" style="stop-color:#FF7A00"/>
	</linearGradient>
	<path class="st8" d="M472,120h16v16h-16V120z"/>
	<linearGradient id="SVGID_10_" gradientUnits="userSpaceOnUse" x1="488" y1="112" x2="504" y2="112">
		<stop  offset="1.201920e-02" style="stop-color:#FF002E"/>
		<stop  offset="1" style="stop-color:#FF7A00"/>
	</linearGradient>
	<path class="st9" d="M488,104h16v16h-16V104z"/>
	<linearGradient id="SVGID_11_" gradientUnits="userSpaceOnUse" x1="456" y1="112" x2="472" y2="112">
		<stop  offset="1.201920e-02" style="stop-color:#FF002E"/>
		<stop  offset="1" style="stop-color:#FF7A00"/>
	</linearGradient>
	<path class="st10" d="M456,104h16v16h-16V104z"/>
	<linearGradient id="SVGID_12_" gradientUnits="userSpaceOnUse" x1="360" y1="48" x2="376" y2="48">
		<stop  offset="1.201920e-02" style="stop-color:#FF002E"/>
		<stop  offset="1" style="stop-color:#FF7A00"/>
	</linearGradient>
	<path class="st11" d="M360,40h16v16h-16V40z"/>
	<linearGradient id="SVGID_13_" gradientUnits="userSpaceOnUse" x1="360" y1="80" x2="376" y2="80">
		<stop  offset="1.201920e-02" style="stop-color:#FF002E"/>
		<stop  offset="1" style="stop-color:#FF7A00"/>
	</linearGradient>
	<path class="st12" d="M360,72h16v16h-16V72z"/>
	<linearGradient id="SVGID_14_" gradientUnits="userSpaceOnUse" x1="376" y1="64" x2="392" y2="64">
		<stop  offset="1.201920e-02" style="stop-color:#FF002E"/>
		<stop  offset="1" style="stop-color:#FF7A00"/>
	</linearGradient>
	<path class="st13" d="M376,56h16v16h-16V56z"/>
	<linearGradient id="SVGID_15_" gradientUnits="userSpaceOnUse" x1="344" y1="64" x2="360" y2="64">
		<stop  offset="1.201920e-02" style="stop-color:#FF002E"/>
		<stop  offset="1" style="stop-color:#FF7A00"/>
	</linearGradient>
	<path class="st14" d="M344,56h16v16h-16V56z"/>
	<linearGradient id="SVGID_16_" gradientUnits="userSpaceOnUse" x1="432" y1="360" x2="448" y2="360">
		<stop  offset="1.201920e-02" style="stop-color:#FF002E"/>
		<stop  offset="1" style="stop-color:#FF7A00"/>
	</linearGradient>
	<path class="st15" d="M432,352h16v16h-16V352z"/>
	<linearGradient id="SVGID_17_" gradientUnits="userSpaceOnUse" x1="432" y1="392" x2="448" y2="392">
		<stop  offset="1.201920e-02" style="stop-color:#FF002E"/>
		<stop  offset="1" style="stop-color:#FF7A00"/>
	</linearGradient>
	<path class="st16" d="M432,384h16v16h-16V384z"/>
	<linearGradient id="SVGID_18_" gradientUnits="userSpaceOnUse" x1="448" y1="376" x2="464" y2="376">
		<stop  offset="1.201920e-02" style="stop-color:#FF002E"/>
		<stop  offset="1" style="stop-color:#FF7A00"/>
	</linearGradient>
	<path class="st17" d="M448,368h16v16h-16V368z"/>
	<linearGradient id="SVGID_19_" gradientUnits="userSpaceOnUse" x1="416" y1="376" x2="432" y2="376">
		<stop  offset="1.201920e-02" style="stop-color:#FF002E"/>
		<stop  offset="1" style="stop-color:#FF7A00"/>
	</linearGradient>
	<path class="st18" d="M416,368h16v16h-16V368z"/>
	<linearGradient id="SVGID_20_" gradientUnits="userSpaceOnUse" x1="272" y1="344" x2="288" y2="344">
		<stop  offset="1.201920e-02" style="stop-color:#FF002E"/>
		<stop  offset="1" style="stop-color:#FF7A00"/>
	</linearGradient>
	<path class="st19" d="M272,336h16v16h-16V336z"/>
	<linearGradient id="SVGID_21_" gradientUnits="userSpaceOnUse" x1="272" y1="376" x2="288" y2="376">
		<stop  offset="1.201920e-02" style="stop-color:#FF002E"/>
		<stop  offset="1" style="stop-color:#FF7A00"/>
	</linearGradient>
	<path class="st20" d="M272,368h16v16h-16V368z"/>
	<linearGradient id="SVGID_22_" gradientUnits="userSpaceOnUse" x1="288" y1="360" x2="304" y2="360">
		<stop  offset="1.201920e-02" style="stop-color:#FF002E"/>
		<stop  offset="1" style="stop-color:#FF7A00"/>
	</linearGradient>
	<path class="st21" d="M288,352h16v16h-16V352z"/>
	<linearGradient id="SVGID_23_" gradientUnits="userSpaceOnUse" x1="256" y1="360" x2="272" y2="360">
		<stop  offset="1.201920e-02" style="stop-color:#FF002E"/>
		<stop  offset="1" style="stop-color:#FF7A00"/>
	</linearGradient>
	<path class="st22" d="M256,352h16v16h-16V352z"/>
	<linearGradient id="SVGID_24_" gradientUnits="userSpaceOnUse" x1="280" y1="80" x2="296" y2="80">
		<stop  offset="1.201920e-02" style="stop-color:#FF002E"/>
		<stop  offset="1" style="stop-color:#FF7A00"/>
	</linearGradient>
	<path class="st23" d="M280,72h16v16h-16V72z"/>
	<linearGradient id="SVGID_25_" gradientUnits="userSpaceOnUse" x1="280" y1="112" x2="296" y2="112">
		<stop  offset="1.201920e-02" style="stop-color:#FF002E"/>
		<stop  offset="1" style="stop-color:#FF7A00"/>
	</linearGradient>
	<path class="st24" d="M280,104h16v16h-16V104z"/>
	<linearGradient id="SVGID_26_" gradientUnits="userSpaceOnUse" x1="296" y1="96" x2="312" y2="96">
		<stop  offset="1.201920e-02" style="stop-color:#FF002E"/>
		<stop  offset="1" style="stop-color:#FF7A00"/>
	</linearGradient>
	<path class="st25" d="M296,88h16v16h-16V88z"/>
	<linearGradient id="SVGID_27_" gradientUnits="userSpaceOnUse" x1="264" y1="96" x2="280" y2="96">
		<stop  offset="1.201920e-02" style="stop-color:#FF002E"/>
		<stop  offset="1" style="stop-color:#FF7A00"/>
	</linearGradient>
	<path class="st26" d="M264,88h16v16h-16V88z"/>
</g>
</svg>
