<?xml version="1.0" encoding="utf-8"?>
<!-- Generator: Adobe Illustrator 25.2.3, SVG Export Plug-In . SVG Version: 6.00 Build 0)  -->
<svg version="1.1" id="Capa_1" xmlns="http://www.w3.org/2000/svg" xmlns:xlink="http://www.w3.org/1999/xlink" x="0px" y="0px"
	 viewBox="0 0 512 512" style="enable-background:new 0 0 512 512;" xml:space="preserve">
<style type="text/css">
	.st0{fill:url(#SVGID_1_);}
	.st1{fill:url(#SVGID_2_);}
	.st2{fill:url(#SVGID_3_);}
	.st3{fill:url(#SVGID_4_);}
	.st4{fill:url(#SVGID_5_);}
</style>
<g>
	<linearGradient id="SVGID_1_" gradientUnits="userSpaceOnUse" x1="171.3" y1="32.45" x2="343.4" y2="32.45">
		<stop  offset="1.201920e-02" style="stop-color:#FF002E"/>
		<stop  offset="1" style="stop-color:#FF7A00"/>
	</linearGradient>
	<path class="st0" d="M343.4,15.3h-23.9c-1.5,0-1.7,0-5.1-3.4C309.9,7.5,302.2,0,288.3,0s-21.5,7.5-26.1,11.9
		c-3.4,3.4-3.6,3.4-5.1,3.4s-1.7,0-5.1-3.4C247.4,7.5,239.8,0,225.9,0s-21.5,7.5-26.1,11.9c-3.4,3.4-3.6,3.4-5.1,3.4h-23.4L194,64.9
		h125.5L343.4,15.3z"/>
	<linearGradient id="SVGID_2_" gradientUnits="userSpaceOnUse" x1="100.6" y1="311" x2="411.4" y2="311">
		<stop  offset="1.201920e-02" style="stop-color:#FF002E"/>
		<stop  offset="1" style="stop-color:#FF7A00"/>
	</linearGradient>
	<path class="st1" d="M328.4,392.1l53.9-89.9c6-10,15.4-17.4,26.1-21.2l3-56.4c-21.7-30.4-52.3-51.2-89.2-69.8H190.5
		c-37.2,18.5-68.1,39.4-89.9,70l3,56.1c10.8,3.7,20.1,11.2,26.1,21.2l53.9,89.9c12.8,20,18.4,43,16.5,66.1c17.8,6,36.7,9.1,55.6,9.1
		c19.1,0,38.1-3.2,56-9.3C310,435,315.6,412,328.4,392.1z M268,338.7v16.5h-20.9v-15.7c-14.8-0.9-29.2-4.9-38.1-10.4l11.3-25.5
		c9.8,5.8,22.9,9.5,34.3,9.5c9.9,0,13.5-2.1,13.5-5.6c0-13.1-57.4-2.5-57.4-41.3c0-16.8,12.2-30.9,36.5-34.3v-16.2H268v15.9
		c11,1,21.7,3.9,30.1,8.6l-10.5,25.4c-10.2-5.2-19.9-7.7-28.9-7.7c-10.2,0-13.5,3-13.5,6.5c0,12.5,57.4,2.1,57.4,40.4
		C302.6,320.7,291,334.7,268,338.7L268,338.7z"/>
	<linearGradient id="SVGID_3_" gradientUnits="userSpaceOnUse" x1="205.4" y1="109.8" x2="307.4" y2="109.8">
		<stop  offset="1.201920e-02" style="stop-color:#FF002E"/>
		<stop  offset="1" style="stop-color:#FF7A00"/>
	</linearGradient>
	<path class="st2" d="M205.4,94.8h102v30h-102V94.8z"/>
	<linearGradient id="SVGID_4_" gradientUnits="userSpaceOnUse" x1="0" y1="328.15" x2="171.5152" y2="328.15">
		<stop  offset="1.201920e-02" style="stop-color:#FF002E"/>
		<stop  offset="1" style="stop-color:#FF7A00"/>
	</linearGradient>
	<path class="st3" d="M159.1,407.6l-0.3-0.4l-54-90c-5.8-9.7-18.5-12.7-28.1-6.7c-9.3,5.8-12.2,18-6.6,27.4l51.1,85.5l-25.8,15.3
		L44.7,353c-7-11.1-9.2-24.3-6.2-37.2C41.7,302.5,50.2,291,62,284c4-2.4,8.2-4.1,12.4-5.3L69,176.8c-1-18.2-16-32.5-34.2-32.5
		c-18.9,0-34.2,15.3-34.3,34.2L0,341.5l68.2,117.4l-20,53.1h100.3l18.1-34.9C175.2,453.6,172.4,428.3,159.1,407.6z"/>
	<linearGradient id="SVGID_5_" gradientUnits="userSpaceOnUse" x1="340.5848" y1="328.2" x2="512" y2="328.2">
		<stop  offset="1.201920e-02" style="stop-color:#FF002E"/>
		<stop  offset="1" style="stop-color:#FF7A00"/>
	</linearGradient>
	<path class="st4" d="M512,341.5l-0.4-162.9c-0.1-18.9-15.4-34.2-34.3-34.2c-18.2,0-33.3,14.3-34.2,32.5l-5.4,101.9
		c4.2,1.2,8.4,2.9,12.4,5.3c11.8,7,20.3,18.5,23.5,31.7c3.1,12.9,0.9,26.1-6.2,37.2l-50.7,85.7l-25.8-15.3l51.1-85.5
		c5.6-9.4,2.7-21.6-6.6-27.4c-9.6-6-22.2-3-28.1,6.7l-54,90l-0.3,0.4c-13.3,20.7-16.1,46-7.5,69.5l18.1,34.9h100.3l-20-53.1
		L512,341.5z"/>
</g>
</svg>
