<?xml version="1.0" encoding="utf-8"?>
<!-- Generator: Adobe Illustrator 25.2.3, SVG Export Plug-In . SVG Version: 6.00 Build 0)  -->
<svg version="1.1" id="Layer_1" xmlns="http://www.w3.org/2000/svg" xmlns:xlink="http://www.w3.org/1999/xlink" x="0px" y="0px"
	 viewBox="0 0 60 60" style="enable-background:new 0 0 60 60;" xml:space="preserve">
<style type="text/css">
	.st0{fill:#001C7E;}
</style>
<g>
	<g>
		<path class="st0" d="M57.9,23.6L43,38.4c0-1.3-0.1-2.6-0.3-3.8l15.2-15.2C58,20.8,58,22.2,57.9,23.6z M42.3,32.6
			c-0.3-1-0.6-2.1-1.1-3l15.4-15.4c0.4,1,0.7,2.1,0.9,3.2L42.3,32.6z M41.1,40.3l-0.5,0.5c-1.4,0.2-2.8,0.2-4.1,0l4.6-4.6
			C41.3,37.5,41.3,38.9,41.1,40.3z M34.4,40.5c-1.1-0.2-2.1-0.5-3.2-1l8.7-8.7c0.4,1,0.7,2.1,1,3.2L34.4,40.5z M27,37.2l10.6-10.6
			c0.6,0.8,1.1,1.7,1.6,2.5l-9.6,9.6C28.7,38.3,27.8,37.8,27,37.2z M23.6,34l10.9-10.9c0.7,0.6,1.4,1.3,2.1,2L25.6,36.1
			C24.9,35.5,24.2,34.8,23.6,34L23.6,34z M22.5,32.7c-0.6-0.8-1.1-1.7-1.5-2.6l9.5-9.5c0.9,0.5,1.8,1,2.6,1.5L22.5,32.7z M19.3,25.2
			l6.4-6.4c1.1,0.2,2.2,0.5,3.2,0.9l-8.6,8.6C19.8,27.4,19.5,26.3,19.3,25.2z M18.9,23.1c-0.1-1.4-0.1-2.8,0.1-4.2l0.3-0.3
			c1.4-0.2,2.8-0.2,4.2-0.1L18.9,23.1z M36,1.9c1.4-0.2,2.8-0.2,4.2-0.1L25,17c-1.1-0.2-2.2-0.3-3.3-0.3c-0.2,0-0.4,0-0.5,0L36,1.9z
			 M42.3,2.1c1.1,0.2,2.1,0.5,3.2,0.9L30.1,18.5c-1-0.4-2-0.8-3.1-1.1L42.3,2.1z M49.8,5.4L34.3,20.9c-0.8-0.6-1.6-1.1-2.5-1.6
			L47.2,3.8C48.1,4.3,49,4.8,49.8,5.4z M53.2,8.5L37.7,24c-0.6-0.7-1.3-1.4-2.1-2L51.2,6.5C51.9,7.1,52.6,7.8,53.2,8.5L53.2,8.5z
			 M54.3,9.9c0.6,0.8,1.1,1.7,1.6,2.5L40.4,27.9c-0.5-0.9-1-1.7-1.6-2.5L54.3,9.9z M59.4,17.4c-0.3-1.8-0.9-3.5-1.6-5.1
			c0-0.1,0-0.1-0.1-0.2c-0.7-1.4-1.5-2.8-2.5-4C55.1,8,55.1,8,55,7.9l0,0c-1-1.2-2.1-2.3-3.3-3.2l0,0c-0.1-0.1-0.1-0.1-0.2-0.1
			c-1.3-1-2.6-1.8-4.1-2.5c-0.1,0-0.1-0.1-0.2-0.1c-1.6-0.8-3.4-1.3-5.1-1.6c-2.2-0.4-4.4-0.4-6.7-0.1l0,0c-9,1.2-16.2,8.1-18,16.9
			c-2.3,0.5-4.5,1.3-6.6,2.5c-0.4,0.2-0.6,0.8-0.3,1.2c0.2,0.4,0.8,0.6,1.2,0.3l0,0c1.7-1,3.5-1.7,5.4-2.2c-0.2,2.1-0.2,4.1,0.2,6.2
			c0.3,1.8,0.9,3.5,1.6,5.1c0,0.1,0,0.1,0.1,0.2c0.7,1.4,1.5,2.8,2.5,4c0,0.1,0.1,0.1,0.1,0.2c0,0,0,0,0,0c1,1.2,2,2.3,3.2,3.3l0,0
			c0.1,0.1,0.1,0.1,0.2,0.1c1.2,1,2.6,1.8,4,2.5c0.1,0,0.1,0.1,0.2,0.1c1.6,0.8,3.3,1.3,5.1,1.6c2,0.4,4.1,0.5,6.2,0.2
			c-2,8.7-9.8,15.1-19.1,15.1C10.9,57.6,2.1,48.8,2.1,38c0-5.4,2.2-10.5,6.1-14.2c0.3-0.3,0.4-0.9,0-1.2c-0.3-0.3-0.9-0.4-1.2,0
			c-2.1,2-3.7,4.3-4.9,6.9C1,32.2,0.4,35.1,0.4,38c0,11.8,9.6,21.3,21.3,21.3c10.3,0,19-7.4,20.9-17.1c8.9-1.8,15.8-9.1,17-18.2l0,0
			C59.9,21.9,59.8,19.6,59.4,17.4L59.4,17.4z"/>
	</g>
</g>
</svg>
